<svg xmlns="http://www.w3.org/2000/svg" viewBox="0 0 512 512">
  <rect width="512" height="512" rx="112" fill="#080d10"/>
  <rect x="56" y="56" width="400" height="400" rx="92" fill="#0d151a"/>
  <path d="M148 170h216c34 0 62 28 62 62v88c0 34-28 62-62 62H148c-34 0-62-28-62-62v-88c0-34 28-62 62-62Z" fill="#101c22" stroke="#263843" stroke-width="10"/>
  <path d="M178 244l-34 32 34 32" fill="none" stroke="#edf3f6" stroke-width="26" stroke-linecap="round" stroke-linejoin="round"/>
  <path d="M230 220l-34 112" fill="none" stroke="#20a779" stroke-width="24" stroke-linecap="round"/>
  <path d="M268 244l34 32-34 32" fill="none" stroke="#edf3f6" stroke-width="26" stroke-linecap="round" stroke-linejoin="round"/>
  <rect x="326" y="316" width="62" height="18" rx="9" fill="#2874d8"/>
  <circle cx="384" cy="190" r="13" fill="#20a779"/>
  <circle cx="420" cy="190" r="13" fill="#2874d8"/>
</svg>
